# xmcd CD database file
#
# Track frame offsets:
#	150
#	16597
#	20687
#	45570
#	60837
#	66150
#	114045
#	125310
#	157450
#	164810
#	193027
#	198617
#	247087
#	254220
#	276862
#	288275
#	297480
#
# Disc length: 4098 seconds
#
# Revision: 0
# Processed by: cddbd v1.5.1PL0 Copyright (c) Steve Scherf et al.
# Submitted via: CDex 1.50
#
DISCID=07100011
DTITLE=Chick Corea Elektric Band - To the Stars
DYEAR=1900
DGENRE=Jazz
TTITLE0=Check Blast
TTITLE1=port View 1
TTITLE2=Mistress Luck-A portrait
TTITLE3=Mistress Luck-The Party
TTITLE4=port View 2
TTITLE5=Johnny;s Landing
TTITLE6=port view 3
TTITLE7=Alan Corday
TTITLE8=port view 4
TTITLE9=Hound of Heaven
TTITLE10=port view 5
TTITLE11=The Long Passage
TTITLE12=port view 6
TTITLE13=Jocelyn-The Commander
TTITLE14=port view 7
TTITLE15=Captain Jocelyn-A Tribute by His Crew
TTITLE16=Captain Jocelyn-The Pianist
EXTD=
EXTT0=
EXTT1=
EXTT2=
EXTT3=
EXTT4=
EXTT5=
EXTT6=
EXTT7=
EXTT8=
EXTT9=
EXTT10=
EXTT11=
EXTT12=
EXTT13=
EXTT14=
EXTT15=
EXTT16=
PLAYORDER=
